<svg width="10" height="6" viewBox="0 0 10 6" fill="none" xmlns="http://www.w3.org/2000/svg">
<path d="M9.94547 0.372642L5.19999 5.91608C5.17533 5.94239 5.14467 5.96352 5.11014 5.97801C5.07561 5.9925 5.03803 6 5 6C4.96197 6 4.92439 5.9925 4.88986 5.97801C4.85533 5.96352 4.82467 5.94239 4.80001 5.91608L0.0545336 0.372642C0.0249516 0.338692 0.00654776 0.297829 0.00144928 0.254776C-0.00364919 0.211723 0.00476587 0.168238 0.0257218 0.129347C0.0468442 0.0905857 0.0794472 0.0579457 0.119866 0.0350962C0.160285 0.0122461 0.206917 9.20296e-05 0.254522 -4.76837e-07H9.74548C9.79308 9.20296e-05 9.83972 0.0122461 9.88013 0.0350962C9.92055 0.0579457 9.95316 0.0905857 9.97428 0.129347C9.99523 0.168238 10.0036 0.211723 9.99855 0.254776C9.99345 0.297829 9.97505 0.338692 9.94547 0.372642Z" fill="#101F31"/>
</svg>
