<svg width="6" height="10" viewBox="0 0 6 10" fill="none" xmlns="http://www.w3.org/2000/svg">
<path d="M0.372642 0.054534L5.91608 4.80001C5.94239 4.82467 5.96352 4.85533 5.97801 4.88986C5.9925 4.92439 6 4.96197 6 5C6 5.03803 5.9925 5.07561 5.97801 5.11014C5.96352 5.14467 5.94239 5.17533 5.91608 5.19999L0.372642 9.94547C0.338692 9.97505 0.297829 9.99345 0.254776 9.99855C0.211723 10.0036 0.168238 9.99523 0.129347 9.97428C0.0905857 9.95316 0.0579457 9.92055 0.0350962 9.88013C0.0122461 9.83972 9.20296e-05 9.79308 -4.76837e-07 9.74548L-4.76837e-07 0.254522C9.20296e-05 0.206918 0.0122461 0.160285 0.0350962 0.119866C0.0579457 0.0794477 0.0905857 0.0468445 0.129347 0.0257225C0.168238 0.00476646 0.211723 -0.00364876 0.254776 0.00144958C0.297829 0.00654793 0.338692 0.0249519 0.372642 0.054534Z" fill="#101F31"/>
</svg>

