<svg width="18" height="17" viewBox="0 0 18 17" fill="none" xmlns="http://www.w3.org/2000/svg">
<path d="M14.0141 0H3.08551C1.40976 0.00199219 0.0517969 1.35995 0.0498047 3.03571V13.9643C0.0517969 15.64 1.40976 16.998 3.08551 17H14.0141C15.6898 16.998 17.0478 15.64 17.0498 13.9643V3.03571C17.0478 1.35995 15.6898 0.00199219 14.0141 0ZM15.8355 13.9643C15.8355 14.9702 15.02 15.7857 14.0141 15.7857H3.08551C2.07956 15.7857 1.26408 14.9702 1.26408 13.9643V3.03571C1.26408 2.02976 2.07956 1.21428 3.08551 1.21428H14.0141C15.02 1.21428 15.8355 2.02976 15.8355 3.03571V13.9643Z" fill="#1A1A1A"/>
<path d="M11.5856 7.88828H9.157V5.45969C9.157 5.12437 8.88517 4.85254 8.54984 4.85254C8.21452 4.85254 7.94269 5.12437 7.94269 5.45969V7.88828H5.51414C5.17881 7.88828 4.90698 8.16011 4.90698 8.49544C4.90698 8.83077 5.17881 9.10256 5.51414 9.10256H7.94272V11.5311C7.94272 11.8665 8.21455 12.1383 8.54988 12.1383C8.88521 12.1383 9.157 11.8664 9.157 11.5311V9.10256H11.5856C11.9209 9.10256 12.1927 8.83073 12.1927 8.4954C12.1927 8.16007 11.9209 7.88828 11.5856 7.88828Z" fill="#1A1A1A"/>
</svg>
