<svg width="12" height="12" viewBox="0 0 12 12" fill="none" xmlns="http://www.w3.org/2000/svg">
<path d="M11.4 1.8H0.6C0.44087 1.8 0.288258 1.86322 0.175736 1.97574C0.0632141 2.08826 0 2.24087 0 2.4C0 2.55913 0.0632141 2.71175 0.175736 2.82427C0.288258 2.93679 0.44087 3 0.6 3H1.8V10.2C1.80014 10.6773 1.98983 11.1351 2.32737 11.4726C2.6649 11.8102 3.12265 11.9999 3.6 12H8.4C8.87735 11.9999 9.33511 11.8102 9.67265 11.4727C10.0102 11.1351 10.1999 10.6774 10.2 10.2V3H11.4C11.5591 3 11.7117 2.93679 11.8243 2.82427C11.9368 2.71175 12 2.55913 12 2.4C12 2.24087 11.9368 2.08826 11.8243 1.97574C11.7117 1.86322 11.5591 1.8 11.4 1.8ZM5.4 8.4C5.4 8.55913 5.33679 8.71175 5.22426 8.82427C5.11174 8.93679 4.95913 9 4.8 9C4.64087 9 4.48826 8.93679 4.37574 8.82427C4.26321 8.71175 4.2 8.55913 4.2 8.4V5.4C4.2 5.24087 4.26321 5.08826 4.37574 4.97574C4.48826 4.86322 4.64087 4.8 4.8 4.8C4.95913 4.8 5.11174 4.86322 5.22426 4.97574C5.33679 5.08826 5.4 5.24087 5.4 5.4V8.4ZM7.8 8.4C7.8 8.55913 7.73679 8.71175 7.62426 8.82427C7.51174 8.93679 7.35913 9 7.2 9C7.04087 9 6.88826 8.93679 6.77574 8.82427C6.66321 8.71175 6.6 8.55913 6.6 8.4V5.4C6.6 5.24087 6.66321 5.08826 6.77574 4.97574C6.88826 4.86322 7.04087 4.8 7.2 4.8C7.35913 4.8 7.51174 4.86322 7.62426 4.97574C7.73679 5.08826 7.8 5.24087 7.8 5.4V8.4Z" fill="#FF2C2C"/>
<path d="M4.80001 1.2H7.20001C7.35914 1.2 7.51175 1.13679 7.62428 1.02426C7.7368 0.911742 7.80001 0.75913 7.80001 0.6C7.80001 0.44087 7.7368 0.288258 7.62428 0.175736C7.51175 0.0632141 7.35914 0 7.20001 0H4.80001C4.64088 0 4.48827 0.0632141 4.37575 0.175736C4.26323 0.288258 4.20001 0.44087 4.20001 0.6C4.20001 0.75913 4.26323 0.911742 4.37575 1.02426C4.48827 1.13679 4.64088 1.2 4.80001 1.2Z" fill="#FF2C2C"/>
</svg>
