<svg width="13" height="12" viewBox="0 0 13 12" fill="none" xmlns="http://www.w3.org/2000/svg">
<path d="M6.36561 2.33105L0.614766 8.0819C0.402856 8.2942 0.268929 8.57191 0.23473 8.86992L0.0055905 10.8819C-0.00934613 11.0234 0.00572982 11.1664 0.0498339 11.3017C0.0939379 11.4369 0.166078 11.5614 0.261543 11.6668C0.357008 11.7723 0.47365 11.8565 0.603853 11.9138C0.734056 11.9712 0.87489 12.0004 1.01716 11.9996H1.13452L3.14648 11.7705C3.4433 11.7361 3.7204 11.6045 3.9345 11.396L9.68534 5.63961L6.36561 2.33105Z" fill="#101F31"/>
<path d="M11.6302 1.84519L10.1716 0.386522C10.0495 0.264012 9.90451 0.166803 9.74483 0.100474C9.58514 0.0341443 9.41393 0 9.24102 0C9.06811 0 8.8969 0.0341443 8.73721 0.100474C8.57753 0.166803 8.43251 0.264012 8.31049 0.386522L6.95801 1.739L10.2777 5.05873L11.6302 3.70625C11.7527 3.58423 11.8499 3.43921 11.9163 3.27953C11.9826 3.11984 12.0167 2.94863 12.0167 2.77572C12.0167 2.60281 11.9826 2.4316 11.9163 2.27191C11.8499 2.11223 11.7527 1.96722 11.6302 1.84519Z" fill="#101F31"/>
</svg>
