<svg width="15" height="14" viewBox="0 0 15 14" fill="none" xmlns="http://www.w3.org/2000/svg">
<path d="M13.2823 0H1.53879C1.24066 0.000234767 0.949014 0.0869976 0.699239 0.249759C0.449464 0.41252 0.252302 0.644281 0.131681 0.916915C0.011059 1.18955 -0.0278353 1.49133 0.019718 1.78564C0.0672714 2.07995 0.199228 2.35413 0.399572 2.5749L5.48898 8.17215V13.451C5.48903 13.5542 5.51815 13.6552 5.57301 13.7426C5.62788 13.83 5.70626 13.9002 5.79918 13.9451C5.87343 13.9817 5.95521 14.0005 6.038 14C6.16278 13.9999 6.28381 13.9573 6.38114 13.8792L7.41055 13.0557L9.12623 11.6831C9.19043 11.6317 9.24227 11.5666 9.2779 11.4924C9.31354 11.4183 9.33206 11.3371 9.33212 11.2549V8.17215L14.4215 2.5749C14.6219 2.35413 14.7538 2.07995 14.8014 1.78564C14.8489 1.49133 14.81 1.18955 14.6894 0.916915C14.5688 0.644281 14.3716 0.41252 14.1219 0.249759C13.8721 0.0869976 13.5804 0.000234767 13.2823 0Z" fill="#7A7A7A"/>
</svg>
