<svg width="225" height="168" viewBox="0 0 225 168" fill="none" xmlns="http://www.w3.org/2000/svg">
<path d="M225 147.351H0V147.463H225V147.351Z" fill="#EBEBEB"/>
<path d="M142.05 150.415H130.594V150.528H142.05V150.415Z" fill="#EBEBEB"/>
<path d="M204.95 152.851H177.8V152.963H204.95V152.851Z" fill="#EBEBEB"/>
<path d="M128.156 150.471H100.106V150.584H128.156V150.471Z" fill="#EBEBEB"/>
<path d="M81.9185 153.838H76.05V153.95H81.9185V153.838Z" fill="#EBEBEB"/>
<path d="M114.338 153.838H87.6187V153.95H114.338V153.838Z" fill="#EBEBEB"/>
<path d="M40.9107 151.938H23.6064V152.051H40.9107V151.938Z" fill="#EBEBEB"/>
<path d="M106.656 127.282H19.7617C18.3456 127.282 17.1931 126.129 17.1931 124.713V2.5686C17.1931 1.15245 18.3456 0 19.7617 0H106.656C108.072 0 109.224 1.15245 109.224 2.5686V124.713C109.224 126.129 108.072 127.282 106.656 127.282ZM19.7617 0.11295C18.4072 0.11295 17.3056 1.21455 17.3056 2.56905V124.713C17.3056 126.068 18.4072 127.17 19.7617 127.17H106.656C108.01 127.17 109.112 126.068 109.112 124.713V2.5686C109.112 1.21455 108.01 0.1125 106.656 0.1125L19.7617 0.11295Z" fill="#EBEBEB"/>
<path d="M203.99 127.282H117.095C115.679 127.282 114.527 126.129 114.527 124.713V2.5686C114.527 1.15245 115.68 0 117.095 0H203.99C205.406 0 206.558 1.15245 206.558 2.5686V124.713C206.559 126.129 205.406 127.282 203.99 127.282ZM117.095 0.11295C115.741 0.11295 114.64 1.21455 114.64 2.56905V124.713C114.64 126.068 115.741 127.17 117.095 127.17H203.99C205.344 127.17 206.446 126.068 206.446 124.713V2.5686C206.446 1.21455 205.344 0.1125 203.99 0.1125L117.095 0.11295Z" fill="#EBEBEB"/>
<path d="M88.1827 108.322H58.3022L56.4883 87.3967H86.3687L88.1827 108.322Z" fill="#E6E6E6"/>
<path d="M89.7303 108.322H59.8503L58.0364 87.3967H87.9164L89.7303 108.322Z" fill="#F0F0F0"/>
<path d="M63.9345 103.828L62.9382 91.8899H83.8317L84.8276 103.828H63.9345Z" fill="white"/>
<path d="M94.9005 108.321H91.3945V147.35H94.9005V108.321Z" fill="#E6E6E6"/>
<path d="M96.007 108.321H93.572V147.35H96.007V108.321Z" fill="#F0F0F0"/>
<path d="M62.0728 112.629H96.0068V108.321H62.0728V112.629Z" fill="#F0F0F0"/>
<path d="M63.2721 112.629H59.7661V147.35H63.2721V112.629Z" fill="#E6E6E6"/>
<path d="M64.3788 112.629H61.9438V147.35H64.3788V112.629Z" fill="#F0F0F0"/>
<path d="M38.3165 112.629H34.8105V147.35H38.3165V112.629Z" fill="#E6E6E6"/>
<path d="M39.423 112.629H36.988V147.35H39.423V112.629Z" fill="#F0F0F0"/>
<path d="M72.714 112.629H69.208V147.35H72.714V112.629Z" fill="#E6E6E6"/>
<path d="M73.8207 112.629H71.3857V147.35H73.8207V112.629Z" fill="#F0F0F0"/>
<path d="M62.0724 108.322H34.8105V112.63H62.0724V108.322Z" fill="#E6E6E6"/>
<path d="M163.727 11.0078H58.2786V69.713H163.727V11.0078Z" fill="#E0E0E0"/>
<path d="M169.518 11.0078H58.811V69.713H169.518V11.0078Z" fill="#F5F5F5"/>
<path d="M167.709 67.9041V12.8164L60.62 12.8164L60.62 67.9041L167.709 67.9041Z" fill="white"/>
<path d="M103.98 67.9041L124.198 12.8164H90.8306L70.6121 67.9041H103.98Z" fill="#F5F5F5"/>
<path d="M136.098 67.9041L156.316 12.8164H131.145L110.927 67.9041H136.098Z" fill="#F5F5F5"/>
<path d="M197.15 91.2832H188.186V147.351H197.15V91.2832Z" fill="#E6E6E6"/>
<path d="M194.793 147.351H197.15V143.034H192.322L194.793 147.351Z" fill="#FAFAFA"/>
<path d="M114.504 91.2832H105.541V147.351H114.504V91.2832Z" fill="#E6E6E6"/>
<path d="M197.15 91.2832H112.447V146.186H197.15V91.2832Z" fill="#FAFAFA"/>
<path d="M195.546 108.998H114.05V93.4922H195.546V108.998ZM114.5 108.548H195.096V93.9422H114.5V108.548Z" fill="#E6E6E6"/>
<path d="M181.2 101.02H129.98C127.601 101.02 125.311 99.1015 123.698 95.7562L123.542 95.4336H187.638L187.482 95.7562C185.869 99.1015 183.579 101.02 181.2 101.02ZM124.263 95.8836C125.786 98.8675 127.856 100.57 129.98 100.57H181.2C183.324 100.57 185.394 98.8675 186.917 95.8836H124.263Z" fill="#E6E6E6"/>
<path d="M114.804 147.351H112.447V143.034H117.275L114.804 147.351Z" fill="#FAFAFA"/>
<path d="M195.546 126.489H114.05V110.982H195.546V126.489ZM114.5 126.039H195.096V111.432H114.5V126.039Z" fill="#E6E6E6"/>
<path d="M181.2 118.51H129.98C127.601 118.51 125.311 116.591 123.698 113.246L123.542 112.923H187.638L187.483 113.246C185.869 116.591 183.579 118.51 181.2 118.51ZM124.263 113.373C125.786 116.357 127.856 118.06 129.98 118.06H181.2C183.325 118.06 185.395 116.357 186.917 113.373H124.263Z" fill="#E6E6E6"/>
<path d="M195.546 143.978H114.05V128.472H195.546V143.978ZM114.5 143.528H195.096V128.922H114.5V143.528Z" fill="#E6E6E6"/>
<path d="M181.2 136H129.98C127.601 136 125.311 134.081 123.698 130.735L123.542 130.413H187.638L187.482 130.735C185.869 134.081 183.579 136 181.2 136ZM124.263 130.863C125.786 133.847 127.856 135.55 129.98 135.55H181.2C183.324 135.55 185.394 133.847 186.917 130.863H124.263Z" fill="#E6E6E6"/>
<path d="M54.4423 98.6985V99.7866H53.7457L53.1706 108.321H44.6948L44.1202 99.7866H43.4236V98.6985H54.4423Z" fill="#E6E6E6"/>
<path d="M51.6527 77.5165C50.9561 72.4328 44.0949 70.9807 35.3888 70.7944C27.1038 70.6175 24.4502 67.6858 24.4502 67.6858C24.4502 67.6858 24.4763 79.5563 36.4143 83.8543C47.7503 87.9353 52.3506 82.6091 51.6527 77.5165Z" fill="#E6E6E6"/>
<path d="M47.4204 89.0423C47.5657 86.9512 50.9043 83.1086 58.9345 84.8555C64.7413 86.1187 66.9 83.1086 66.9 83.1086C66.9 83.1086 66.3622 91.6042 57.6295 94.1584C49.3369 96.5839 47.1643 92.7197 47.4204 89.0423Z" fill="#E6E6E6"/>
<path d="M49.2524 101.903C49.3401 101.903 49.4274 101.866 49.4891 101.794C50.0714 101.106 49.5949 99.4581 48.9361 97.1775C48.0901 94.2507 47.0375 90.6089 47.929 87.9638C48.4321 86.4707 49.0548 85.1544 49.6565 83.8809C50.9169 81.2151 52.0055 78.9129 51.0974 76.5086C51.0371 76.3484 50.8585 76.2678 50.6983 76.3281C50.5385 76.3884 50.4575 76.5671 50.5178 76.7273C51.3328 78.8855 50.3459 80.973 49.0962 83.6159C48.5148 84.8448 47.8565 86.238 47.3417 87.7653C46.3882 90.594 47.4709 94.3394 48.3407 97.349C48.8537 99.1238 49.3838 100.958 49.0162 101.393C48.9059 101.524 48.9221 101.719 49.0526 101.83C49.1106 101.879 49.1817 101.903 49.2524 101.903Z" fill="#E6E6E6"/>
<path d="M112.5 167.674C160.687 167.674 199.75 165.393 199.75 162.579C199.75 159.765 160.687 157.483 112.5 157.483C64.3132 157.483 25.25 159.765 25.25 162.579C25.25 165.393 64.3132 167.674 112.5 167.674Z" fill="#F5F5F5"/>
<path d="M112.482 137.744H48.5819L45.0845 34.9785H108.984L112.482 137.744Z" fill="#38C776"/>
<path d="M115.671 134.554H51.771L48.2732 31.7891H112.173L115.671 134.554Z" fill="#38C776"/>
<path opacity="0.3" d="M115.671 134.554H51.771L48.2732 31.7891H112.173L115.671 134.554Z" fill="white"/>
<path d="M94.267 74.0821C101.109 67.1227 100.819 55.742 93.6185 48.6627C86.418 41.5833 75.034 41.4862 68.1917 48.4456C61.3493 55.4051 61.6396 66.7858 68.8401 73.8651C76.0406 80.9444 87.4246 81.0416 94.267 74.0821Z" fill="#38C776"/>
<path d="M96.061 61.2617C96.1483 63.8236 95.5804 66.2288 94.5089 68.3281C92.164 72.9518 87.371 76.0964 81.7312 76.0964C76.0918 76.0964 71.0846 72.9518 68.4247 68.3281C67.2106 66.2293 66.4789 63.824 66.3916 61.2617C66.1126 53.0672 72.5273 46.427 80.7214 46.427C88.9154 46.427 95.782 53.0672 96.061 61.2617Z" fill="white"/>
<path opacity="0.6" d="M94.5083 68.3274C92.1634 72.9512 87.3704 76.0958 81.7306 76.0958C76.0912 76.0958 71.084 72.9512 68.4241 68.3274C72.074 65.8326 76.5061 64.376 81.3314 64.376C86.1577 64.376 90.6887 65.8322 94.5083 68.3274Z" fill="#38C776"/>
<path opacity="0.6" d="M85.8497 60.8988C88.3653 58.3402 88.2585 54.1561 85.6113 51.5535C82.9641 48.9508 78.7788 48.9151 76.2633 51.4737C73.7477 54.0323 73.8545 58.2163 76.5017 60.819C79.1489 63.4217 83.3342 63.4574 85.8497 60.8988Z" fill="#38C776"/>
<path d="M102.836 97.3393H62.073L61.7971 89.2393H102.56L102.836 97.3393Z" fill="white"/>
<path d="M103.329 111.817H62.5656L62.2898 103.717H103.053L103.329 111.817Z" fill="white"/>
<path d="M87.5961 104.83L77.773 106.166C77.3694 106.221 77.1039 106.589 77.1804 106.979L78.4701 113.562C78.547 113.955 78.939 114.23 79.3426 114.176L89.1657 112.84C89.5693 112.786 89.8353 112.421 89.7583 112.027L88.4686 105.445C88.3921 105.054 87.9997 104.776 87.5961 104.83ZM84.7737 111.499L82.9953 111.741L82.8162 109.617C82.4377 109.45 82.1637 109.114 82.0863 108.718C81.9603 108.075 82.395 107.479 83.0551 107.389C83.713 107.299 84.3525 107.75 84.4789 108.393C84.5563 108.789 84.4245 109.179 84.1297 109.438L84.7737 111.499Z" fill="#38C776"/>
<path d="M86.6265 104.478C86.2674 104.526 85.9209 104.283 85.8525 103.933L85.7261 103.288C85.3787 101.515 83.6831 100.176 81.8475 100.336C79.8855 100.507 78.5702 102.24 78.9374 104.113L79.0823 104.854C79.1507 105.203 78.9153 105.526 78.5562 105.575C78.1971 105.624 77.8506 105.38 77.7822 105.03L77.6594 104.402C77.1752 101.93 78.7308 99.5544 81.2477 99.1165C83.8937 98.6557 86.5028 100.44 87.0072 103.016L87.1521 103.756C87.2205 104.106 86.9852 104.429 86.6265 104.478Z" fill="#38C776"/>
<path d="M96.6001 123.159H70.0663L69.8872 117.887H96.4206L96.6001 123.159Z" fill="#38C776"/>
<path d="M83.7979 93.2893C83.8258 94.1074 83.185 94.7707 82.3669 94.7707C81.5488 94.7707 80.863 94.1074 80.8351 93.2893C80.8072 92.4712 81.448 91.8079 82.2661 91.8079C83.0842 91.8079 83.77 92.4712 83.7979 93.2893Z" fill="#263238"/>
<path d="M77.4202 93.2893C77.4481 94.1074 76.8073 94.7707 75.9892 94.7707C75.1711 94.7707 74.4853 94.1074 74.4574 93.2893C74.4295 92.4712 75.0703 91.8079 75.8884 91.8079C76.7065 91.8079 77.3923 92.4712 77.4202 93.2893Z" fill="#263238"/>
<path d="M71.0423 93.2893C71.0702 94.1074 70.4294 94.7707 69.6113 94.7707C68.7932 94.7707 68.1074 94.1074 68.0795 93.2893C68.0516 92.4712 68.6924 91.8079 69.5105 91.8079C70.3286 91.8079 71.0144 92.4712 71.0423 93.2893Z" fill="#263238"/>
<path d="M90.1758 93.2893C90.2037 94.1074 89.5629 94.7707 88.7448 94.7707C87.9267 94.7707 87.2409 94.1074 87.213 93.2893C87.1851 92.4712 87.8259 91.8079 88.644 91.8079C89.4621 91.8079 90.1479 92.4712 90.1758 93.2893Z" fill="#263238"/>
<path d="M96.5538 93.2893C96.5817 94.1074 95.9409 94.7707 95.1228 94.7707C94.3047 94.7707 93.6189 94.1074 93.591 93.2893C93.5631 92.4712 94.2039 91.8079 95.022 91.8079C95.8401 91.8079 96.5263 92.4712 96.5538 93.2893Z" fill="#263238"/>
<path d="M150.259 53.6982C150.859 54.659 151.355 55.581 151.87 56.5382C152.383 57.4859 152.846 58.461 153.301 59.4434C154.196 61.4157 154.997 63.4506 155.596 65.6223C155.676 65.8887 155.737 66.1713 155.803 66.4481L155.902 66.8643L155.951 67.0722L156.01 67.4151C156.138 68.3295 156.025 69.0752 155.869 69.7331C155.547 71.0444 155.026 72.0902 154.469 73.0883C153.331 75.0642 152.002 76.7472 150.47 78.3411L148.575 76.9065C149.509 75.1335 150.433 73.2759 151.112 71.4899C151.441 70.6016 151.717 69.6975 151.798 68.9555C151.838 68.5905 151.812 68.2769 151.761 68.1603L151.583 67.6104C151.51 67.3845 151.444 67.16 151.355 66.9323C150.706 65.1165 149.881 63.2927 148.984 61.4945C148.099 59.703 147.118 57.8792 146.152 56.1768L150.259 53.6982Z" fill="#FF8B7B"/>
<path d="M149.056 76.2627L146.99 77.3593L149.365 80.1403C149.365 80.1403 150.848 79.1373 150.915 77.6055L149.056 76.2627Z" fill="#FF8B7B"/>
<path d="M144.21 79.0749L146.755 81.094L149.365 80.1413L146.99 77.3604L144.21 79.0749Z" fill="#FF8B7B"/>
<path d="M135.518 38.9751C135.467 39.2253 135.293 39.4012 135.13 39.3679C134.966 39.3346 134.875 39.1051 134.926 38.8549C134.977 38.6047 135.15 38.4288 135.314 38.4621C135.477 38.4954 135.569 38.7253 135.518 38.9751Z" fill="#263238"/>
<path d="M135.316 39.4065C135.316 39.4065 134.454 40.734 133.687 41.3032C134.045 41.8063 134.836 41.7703 134.836 41.7703L135.316 39.4065Z" fill="#FF5652"/>
<path d="M134.505 48.2337L134.525 45.2844L138.431 45.7565C138.431 45.7565 138.364 48.2927 136.183 49.0383L134.505 48.2337Z" fill="#FF8B7B"/>
<path d="M135.628 43.1604L138.379 43.9506L138.431 45.7564L134.525 45.2844L135.628 43.1604Z" fill="#FF8B7B"/>
<path opacity="0.2" d="M138.379 43.9502L135.63 43.1582L135.094 44.1842C135.162 45.9257 136.224 47.3567 137.632 48.0002C138.397 46.9967 138.429 45.7547 138.429 45.7547L138.379 43.9502Z" fill="black"/>
<path d="M136.716 37.7721C136.753 37.7721 136.789 37.759 136.818 37.732C136.879 37.6758 136.882 37.5808 136.826 37.5201C136.263 36.9108 135.58 37.0192 135.55 37.0242C135.469 37.0381 135.414 37.1155 135.428 37.197C135.442 37.2784 135.52 37.3329 135.6 37.3198C135.623 37.3162 136.157 37.2379 136.606 37.7239C136.636 37.7559 136.676 37.7721 136.716 37.7721Z" fill="#263238"/>
<path d="M142.466 43.5293C142.012 45.845 141.738 49.053 143.358 50.5983C143.358 50.5983 142.725 52.9473 138.422 52.9473C133.691 52.9473 136.146 50.8859 136.146 50.8859C138.113 50.2757 138.095 48.0356 137.645 46.236L142.466 43.5293Z" fill="#FF8B7B"/>
<path d="M144.244 52.1464C144.665 51.5497 144.649 49.6646 144.199 49.3321C143.472 48.7952 140.366 48.6719 136.181 49.634C136.632 51.4601 135.667 52.4173 135.667 52.4173L144.244 52.1464Z" fill="#38C776"/>
<path d="M158.308 158.978C157.99 159.047 157.673 159.065 157.52 158.935C157.455 158.88 157.391 158.776 157.447 158.587C157.477 158.487 157.542 158.413 157.64 158.366C158.068 158.162 159.05 158.562 159.092 158.579C159.119 158.591 159.137 158.617 159.138 158.646C159.139 158.676 159.122 158.703 159.096 158.716C158.945 158.789 158.627 158.909 158.308 158.978ZM157.793 158.472C157.761 158.479 157.731 158.489 157.705 158.502C157.646 158.53 157.608 158.572 157.591 158.629C157.551 158.764 157.601 158.807 157.618 158.821C157.788 158.965 158.42 158.832 158.865 158.654C158.563 158.547 158.074 158.412 157.793 158.472Z" fill="#38C776"/>
<path d="M159.079 158.722C159.067 158.725 159.054 158.724 159.042 158.72C158.684 158.616 157.919 158.072 157.91 157.713C157.908 157.648 157.931 157.53 158.101 157.471C158.212 157.432 158.324 157.441 158.433 157.497C158.856 157.713 159.124 158.59 159.135 158.627C159.143 158.654 159.136 158.682 159.116 158.702C159.106 158.712 159.093 158.719 159.079 158.722ZM158.183 157.603C158.172 157.605 158.161 157.609 158.15 157.612C158.058 157.645 158.059 157.69 158.059 157.709C158.065 157.922 158.57 158.348 158.94 158.521C158.848 158.268 158.636 157.769 158.365 157.631C158.303 157.599 158.243 157.59 158.183 157.603Z" fill="#38C776"/>
<path d="M134.939 159.509C134.533 159.509 134.141 159.453 134.009 159.27C133.963 159.206 133.927 159.098 134.015 158.943C134.065 158.856 134.145 158.797 134.253 158.767C134.78 158.624 135.886 159.254 135.933 159.281C135.96 159.297 135.974 159.327 135.969 159.358C135.964 159.389 135.94 159.413 135.91 159.42C135.708 159.46 135.318 159.509 134.939 159.509ZM134.437 158.895C134.384 158.895 134.335 158.9 134.292 158.912C134.223 158.931 134.175 158.965 134.145 159.017C134.092 159.11 134.112 159.156 134.131 159.183C134.278 159.387 135.078 159.392 135.667 159.309C135.373 159.158 134.807 158.895 134.437 158.895Z" fill="#38C776"/>
<path d="M135.895 159.422C135.885 159.422 135.874 159.42 135.865 159.415C135.483 159.244 134.726 158.559 134.784 158.201C134.797 158.117 134.857 158.013 135.063 157.991C135.217 157.976 135.356 158.019 135.478 158.12C135.881 158.451 135.966 159.303 135.97 159.34C135.973 159.366 135.96 159.392 135.939 159.408C135.926 159.417 135.91 159.422 135.895 159.422ZM135.123 158.139C135.108 158.139 135.093 158.139 135.078 158.141C134.943 158.154 134.934 158.207 134.932 158.225C134.897 158.44 135.411 158.978 135.801 159.212C135.761 158.963 135.648 158.453 135.384 158.236C135.304 158.171 135.218 158.139 135.123 158.139Z" fill="#38C776"/>
<path d="M139.376 159.347H136.211L135.896 152.018H139.06L139.376 159.347Z" fill="#FF8B7B"/>
<path d="M162.607 157.881L159.514 158.551L156.408 151.724L159.501 151.054L162.607 157.881Z" fill="#FF8B7B"/>
<path d="M159.216 158.24L162.692 157.488C162.818 157.46 162.947 157.525 163.001 157.642L164.207 160.26C164.332 160.531 164.167 160.85 163.873 160.908C162.656 161.149 162.051 161.206 160.522 161.537C159.582 161.74 157.459 162.258 156.161 162.539C154.891 162.813 154.415 161.572 154.921 161.341C157.192 160.304 158.14 159.39 158.755 158.539C158.866 158.385 159.031 158.28 159.216 158.24Z" fill="#263238"/>
<path d="M136.231 158.98H139.688C139.817 158.98 139.929 159.07 139.957 159.196L140.582 162.01C140.647 162.301 140.426 162.578 140.127 162.573C138.88 162.552 137.078 162.478 135.511 162.478C133.679 162.478 132.096 162.578 129.947 162.578C128.647 162.578 128.287 161.265 128.831 161.145C131.307 160.604 133.329 160.546 135.468 159.227C135.702 159.084 135.958 158.98 136.231 158.98Z" fill="#263238"/>
<path d="M149.025 51.3137C151.992 51.9937 154.438 59.5672 154.438 59.5672L148.481 64.1077C148.481 64.1077 146.294 62.0462 145.321 58.2581C144.301 54.2887 145.992 50.6185 149.025 51.3137Z" fill="#38C776"/>
<path opacity="0.4" d="M149.025 51.3137C151.992 51.9937 154.438 59.5672 154.438 59.5672L148.481 64.1077C148.481 64.1077 146.294 62.0462 145.321 58.2581C144.301 54.2887 145.992 50.6185 149.025 51.3137Z" fill="black"/>
<path d="M133.426 60.352C132.686 61.1508 131.948 61.8613 131.183 62.5926C130.804 62.9562 130.416 63.3126 130.019 63.6622L129.422 64.1856L129.271 64.3156C129.199 64.3782 129.11 64.4524 129.015 64.5249C128.817 64.6711 128.6 64.8417 128.146 65.0383C127.905 65.131 127.595 65.2539 127.051 65.2647C126.792 65.2687 126.441 65.2237 126.106 65.0968C125.764 64.9699 125.433 64.7503 125.206 64.5244C124.735 64.0515 124.593 63.6366 124.5 63.3589C124.414 63.0727 124.389 62.8684 124.372 62.6898C124.344 62.3406 124.362 62.1043 124.381 61.8856C124.402 61.6696 124.432 61.4829 124.465 61.3065C124.597 60.6126 124.784 60.0528 124.987 59.4921C125.193 58.9372 125.42 58.4044 125.686 57.8658C125.972 57.2925 126.248 56.8767 126.523 56.3974C127.635 54.5389 128.94 52.8415 130.326 51.2418C131.743 49.6528 133.23 48.2002 134.939 46.8691L136.596 48.5733C135.432 50.1298 134.288 51.798 133.231 53.4432C132.175 55.1005 131.195 56.788 130.352 58.5039C130.158 58.9278 129.918 59.3922 129.783 59.7468C129.625 60.1342 129.48 60.5505 129.361 60.9604C129.243 61.3654 129.148 61.7875 129.105 62.0971C129.095 62.1718 129.09 62.2371 129.09 62.2749C129.089 62.3095 129.098 62.3289 129.093 62.233C129.089 62.1808 129.084 62.103 129.035 61.9383C128.98 61.7817 128.895 61.4851 128.516 61.1017C128.333 60.9222 128.059 60.7341 127.774 60.6324C127.499 60.5248 127.212 60.4933 127.017 60.4942C126.6 60.5037 126.414 60.5887 126.291 60.6328C126.071 60.7282 126.066 60.7539 126.068 60.744L126.241 60.5865L126.782 60.0915L127.858 59.0839C128.569 58.413 129.286 57.6975 129.962 57.0333L133.426 60.352Z" fill="#FF8B7B"/>
<path opacity="0.2" d="M146.483 56.8826C148.094 58.4769 148.62 61.3808 148.745 63.9053L148.482 64.1078C148.482 64.1078 146.293 62.0441 145.319 58.2569C145.259 58.0202 145.207 57.783 145.164 57.5504L146.483 56.8826Z" fill="black"/>
<path d="M130.279 54.4874C129.632 57.9069 129.227 64.9287 131.105 78.8346H148.035C148.151 76.2359 146.518 63.5585 149.025 51.3135C149.025 51.3135 146.123 50.7312 143.358 50.598C141.195 50.4936 138.063 50.4248 136.161 50.5985C135.367 50.6709 134.588 50.7857 133.894 50.9085C132.063 51.2321 130.624 52.6608 130.279 54.4874Z" fill="#38C776"/>
<path opacity="0.4" d="M130.279 54.4874C129.632 57.9069 129.227 64.9287 131.105 78.8346H148.035C148.151 76.2359 146.518 63.5585 149.025 51.3135C149.025 51.3135 146.123 50.7312 143.358 50.598C141.195 50.4936 138.063 50.4248 136.161 50.5985C135.367 50.6709 134.588 50.7857 133.894 50.9085C132.063 51.2321 130.624 52.6608 130.279 54.4874Z" fill="black"/>
<path opacity="0.2" d="M132.869 59.5412L129.81 58.8086C129.715 60.6612 129.707 62.9576 129.845 65.7971C131.254 64.1942 133.05 61.6953 132.869 59.5412Z" fill="black"/>
<path opacity="0.2" d="M135.896 152.019L136.058 155.797H139.225L139.063 152.019H135.896Z" fill="black"/>
<path opacity="0.2" d="M159.503 151.056L156.408 151.726L158.01 155.245L161.106 154.575L159.503 151.056Z" fill="black"/>
<path d="M143.97 40.1408C143.157 43.1752 142.835 44.9923 140.963 46.2541C138.146 48.1517 134.64 45.9737 134.53 42.7576C134.432 39.8627 135.778 35.387 139.034 34.7755C142.242 34.1734 144.783 37.1065 143.97 40.1408Z" fill="#FF8B7B"/>
<path d="M136.866 40.2579C136.716 39.8511 136.015 36.7155 136.673 35.9015C137.331 35.0874 144.823 35.6728 145.931 36.7632C147.768 38.5717 146.493 40.1859 144.482 42.2685C142.968 43.8345 142.91 45.5999 142.147 45.8586C140.81 46.3127 138.735 45.8861 138.32 44.4582C137.904 43.0308 136.866 40.2579 136.866 40.2579Z" fill="#263238"/>
<path d="M145.023 33.1964C142.375 32.0687 137.411 33.3161 134.729 32.6699C134.634 34.0582 135.471 36.2843 138.152 36.8828C138.152 36.8828 141.958 37.6249 144.902 37.5052C147.846 37.3855 147.272 34.154 145.023 33.1964Z" fill="#263238"/>
<path d="M145.437 36.8586C145.437 36.8586 147.075 37.0431 148.237 36.3213C148.734 37.5178 146.012 37.8463 145.437 36.8586Z" fill="#263238"/>
<path d="M138.309 40.3822C138.26 41.2035 137.879 41.9761 137.42 42.4819C136.73 43.242 136.01 42.769 135.888 41.8429C135.778 41.0095 136.004 39.6096 136.848 39.1906C137.679 38.7771 138.365 39.4431 138.309 40.3822Z" fill="#FF8B7B"/>
<path d="M137.11 78.835C137.11 78.835 140.702 103.024 142.675 112.086C144.834 122.01 156.414 154.842 156.414 154.842L162.08 153.616C162.08 153.616 153.983 126.859 152.17 112.985C150.778 102.329 148.035 78.835 148.035 78.835H137.11Z" fill="#38C776"/>
<path d="M155.057 152.95C155.033 152.955 156.113 154.999 156.113 154.999L162.488 153.619L161.951 151.702L155.057 152.95Z" fill="#263238"/>
<path opacity="0.3" d="M139.381 87.4529C143.534 88.2674 143.095 103.756 142.595 111.723C141.397 106.091 139.644 95.2555 138.446 87.565C138.721 87.4273 139.032 87.3841 139.381 87.4529Z" fill="black"/>
<path d="M131.105 78.835C131.105 78.835 130.669 102.5 131.013 112.153C131.372 122.192 134.879 155.066 134.879 155.066H140.24C140.24 155.066 140.437 122.779 140.675 112.919C140.936 102.17 142.233 78.835 142.233 78.835H131.105Z" fill="#38C776"/>
<path d="M133.847 152.93C133.822 152.93 134.149 155.156 134.149 155.156H140.671L140.848 153.169L133.847 152.93Z" fill="#263238"/>
<path d="M136.913 55.5259C138.431 59.6159 129.514 64.4336 129.514 64.4336L125.654 59.471C125.654 59.471 128.23 54.3455 131.39 52.0348C135.294 49.1804 135.758 52.4123 136.913 55.5259Z" fill="#38C776"/>
<path opacity="0.4" d="M136.913 55.5259C138.431 59.6159 129.514 64.4336 129.514 64.4336L125.654 59.471C125.654 59.471 128.23 54.3455 131.39 52.0348C135.294 49.1804 135.758 52.4123 136.913 55.5259Z" fill="black"/>
<path d="M171.844 24.4715C180.812 24.4715 188.083 19.8376 188.083 14.1215C188.083 8.40534 180.812 3.77148 171.844 3.77148C162.875 3.77148 155.604 8.40534 155.604 14.1215C155.604 19.8376 162.875 24.4715 171.844 24.4715Z" fill="#38C776"/>
<path d="M165.981 19.3316C165.078 19.3316 164.198 19.0616 163.433 18.54C162.407 17.8407 161.725 16.7805 161.513 15.5547C161.109 13.2116 162.665 10.877 164.982 10.3505C166.89 9.91805 168.828 10.7312 169.852 12.3831L180.278 10.2317C181.122 10.0575 181.98 10.5611 182.188 11.3553C182.299 11.7774 182.233 12.2135 182.004 12.5834C181.774 12.9533 181.413 13.2048 180.987 13.293L180.713 13.3497C180.631 13.3664 180.565 13.4159 180.525 13.4888C180.486 13.5608 180.48 13.6458 180.509 13.7223L180.693 14.2002C180.818 14.5238 180.702 14.8878 180.416 15.0656C180.193 15.2042 180.042 15.4418 180.012 15.7019C179.975 16.0205 179.762 16.2657 179.47 16.326L179.256 16.3701C178.965 16.4295 178.672 16.29 178.511 16.0119C178.323 15.687 177.95 15.5196 177.581 15.5961C177.21 15.6726 176.932 15.9746 176.887 16.3476C176.849 16.6667 176.636 16.9115 176.345 16.9713L176.134 17.0145C175.846 17.0744 175.551 16.934 175.39 16.6563C175.258 16.4295 175.024 16.2711 174.764 16.2324C174.431 16.1829 174.18 15.8949 174.166 15.5475L174.145 15.0359C174.142 14.9526 174.104 14.8788 174.039 14.828C173.974 14.7767 173.895 14.7582 173.811 14.7744L170.489 15.4602C170.207 17.3426 168.788 18.8496 166.911 19.2371C166.601 19.2996 166.289 19.3316 165.981 19.3316ZM165.082 10.7892C162.994 11.2635 161.592 13.3673 161.957 15.4782C162.148 16.583 162.762 17.5379 163.687 18.1683C164.611 18.7988 165.724 19.0215 166.82 18.7952C168.56 18.4361 169.863 17.0096 170.063 15.2456L170.082 15.0836L173.72 14.3325C173.93 14.2889 174.147 14.3402 174.316 14.4725C174.485 14.6043 174.586 14.8028 174.595 15.017L174.616 15.5286C174.621 15.6582 174.713 15.7694 174.83 15.7865C175.231 15.8463 175.576 16.0808 175.779 16.43C175.829 16.5155 175.923 16.5978 176.044 16.5731L176.254 16.5299C176.373 16.5051 176.429 16.3917 176.44 16.2936C176.508 15.7284 176.93 15.2708 177.49 15.1551C178.049 15.0399 178.616 15.2937 178.901 15.786C178.951 15.8715 179.044 15.9548 179.165 15.9291L179.38 15.885C179.5 15.8603 179.554 15.7473 179.565 15.6497C179.612 15.2483 179.836 14.8964 180.179 14.6835C180.28 14.621 180.32 14.4828 180.274 14.3622L180.09 13.8839C180.013 13.6836 180.028 13.4613 180.131 13.2732C180.234 13.0856 180.413 12.9528 180.623 12.9096L180.897 12.8529C181.201 12.7904 181.458 12.6104 181.622 12.3471C181.786 12.0834 181.833 11.772 181.754 11.4705C181.606 10.9044 180.983 10.5462 180.369 10.674L169.628 12.8907L169.547 12.7494C168.646 11.1749 166.854 10.3865 165.082 10.7892ZM165.987 17.6679C165.429 17.6679 164.884 17.5059 164.408 17.1927C163.764 16.7693 163.325 16.1213 163.17 15.3675C163.013 14.6124 163.161 13.8425 163.584 13.1999C164.007 12.5577 164.655 12.1185 165.41 11.9628C166.165 11.8067 166.935 11.9534 167.577 12.3759C168.219 12.798 168.658 13.4469 168.814 14.2025C168.97 14.9562 168.823 15.7257 168.401 16.3683C167.978 17.0118 167.329 17.4519 166.574 17.6076C166.378 17.6481 166.182 17.6679 165.987 17.6679ZM166 12.3521C165.834 12.3521 165.667 12.3692 165.501 12.4034C164.864 12.5348 164.317 12.9056 163.96 13.4474C163.603 13.9896 163.479 14.639 163.611 15.2766C163.742 15.9125 164.113 16.4592 164.656 16.8165C165.199 17.1734 165.848 17.298 166.484 17.1666C167.121 17.0352 167.669 16.6635 168.025 16.1208C168.382 15.5786 168.506 14.9297 168.374 14.2929C168.242 13.6553 167.872 13.1076 167.33 12.7512C166.929 12.4889 166.47 12.3521 166 12.3521Z" fill="white"/>
<path opacity="0.6" d="M158.623 30.5394C161.57 30.5394 163.96 29.0162 163.96 27.1374C163.96 25.2585 161.57 23.7354 158.623 23.7354C155.675 23.7354 153.285 25.2585 153.285 27.1374C153.285 29.0162 155.675 30.5394 158.623 30.5394Z" fill="#38C776"/>
<path opacity="0.3" d="M150.133 31.9353C151.343 31.9353 152.324 31.3101 152.324 30.5389C152.324 29.7677 151.343 29.1426 150.133 29.1426C148.923 29.1426 147.942 29.7677 147.942 30.5389C147.942 31.3101 148.923 31.9353 150.133 31.9353Z" fill="#38C776"/>
</svg>
