<svg width="22" height="16" viewBox="0 0 22 16" fill="none" xmlns="http://www.w3.org/2000/svg">
<path d="M18.0353 14.5884L3.96429 0.245046L3.96128 0.241542C3.8851 0.164519 3.79479 0.103545 3.69549 0.0621024C3.5962 0.0206598 3.48987 -0.000440456 3.38257 6.96924e-06C3.27528 0.000454394 3.16912 0.0224407 3.07016 0.0647101C2.9712 0.106979 2.88138 0.168704 2.80582 0.246361C2.73026 0.324017 2.67045 0.416083 2.62979 0.517304C2.58914 0.618524 2.56844 0.726917 2.56888 0.836292C2.56976 1.05718 2.65669 1.26867 2.81055 1.42423L4.0425 2.68006C2.54848 3.72313 1.26249 5.04608 0.25297 6.57854C0.0881148 6.82666 0 7.11945 0 7.41912C0 7.7188 0.0881148 8.01159 0.25297 8.25971C2.82988 12.1477 6.91504 14.4254 11.0002 14.397C12.3235 14.4019 13.6379 14.1773 14.8873 13.7329L16.8815 15.7658C17.0352 15.9174 17.241 16.0015 17.4548 16C17.6686 15.9985 17.8733 15.9116 18.025 15.7579C18.1766 15.6042 18.263 15.396 18.2656 15.1781C18.2683 14.9601 18.187 14.7498 18.0391 14.5923L18.0353 14.5884ZM11.0002 12.1363C10.2262 12.136 9.46466 11.938 8.78511 11.5603C8.10555 11.1827 7.52968 10.6374 7.11012 9.97442C6.69055 9.31142 6.44068 8.5518 6.38333 7.76499C6.32599 6.97817 6.463 6.18925 6.78184 5.47032L8.06879 6.78223C7.96513 7.28018 7.98516 7.79664 8.12706 8.2847C8.26896 8.77275 8.52824 9.21693 8.88134 9.57687C9.23444 9.93682 9.67017 10.2011 10.1489 10.3458C10.6277 10.4904 11.1344 10.5109 11.6228 10.4052L12.9098 11.7171C12.31 11.9943 11.6588 12.1373 11.0002 12.1363Z" fill="#88A5C8"/>
<path d="M21.7471 6.57672C19.1702 2.68657 15.085 0.408803 10.9999 0.437276C9.67661 0.43239 8.36218 0.656943 7.11279 1.10133L9.08941 3.11628C9.94713 2.72059 10.9028 2.60078 11.829 2.7728C12.7552 2.94482 13.608 3.4005 14.2737 4.07912C14.9394 4.75774 15.3864 5.62706 15.5552 6.57123C15.7239 7.5154 15.6064 8.48957 15.2182 9.36392L17.9571 12.1559C19.4514 11.113 20.7376 9.79005 21.7471 8.25745C21.9119 8.00938 21.9999 7.71667 21.9999 7.41709C21.9999 7.1175 21.9119 6.8248 21.7471 6.57672Z" fill="#88A5C8"/>
<path d="M11.0001 4.36182C10.7908 4.36184 10.5821 4.38416 10.3774 4.4284L13.9315 8.05092C14.0242 7.60584 14.0181 7.14527 13.9138 6.70287C13.8096 6.26047 13.6096 5.8474 13.3287 5.49384C13.0478 5.14028 12.6929 4.85516 12.29 4.65931C11.8871 4.46346 11.4464 4.36182 11.0001 4.36182Z" fill="#88A5C8"/>
</svg>
