<svg width="97" height="52" viewBox="0 0 97 52" fill="none" xmlns="http://www.w3.org/2000/svg">
<path d="M10.0352 20.7637C10.0352 20.4082 10.0033 20.0846 9.93945 19.793C9.87565 19.5013 9.73893 19.2324 9.5293 18.9863C9.32878 18.7402 9.03255 18.4941 8.64062 18.248C8.25781 18.002 7.75651 17.7467 7.13672 17.4824C6.39844 17.1725 5.68294 16.8444 4.99023 16.498C4.29753 16.1426 3.67318 15.7324 3.11719 15.2676C2.5612 14.8027 2.11914 14.2559 1.79102 13.627C1.47201 12.9889 1.3125 12.2415 1.3125 11.3848C1.3125 10.5462 1.46289 9.78516 1.76367 9.10156C2.07357 8.41797 2.51107 7.83464 3.07617 7.35156C3.64128 6.85938 4.30208 6.48112 5.05859 6.2168C5.82422 5.95247 6.67643 5.82031 7.61523 5.82031C8.89128 5.82031 9.99414 6.08464 10.9238 6.61328C11.8626 7.14193 12.5872 7.86654 13.0977 8.78711C13.6172 9.70768 13.877 10.765 13.877 11.959H9.88477C9.88477 11.3939 9.80273 10.8971 9.63867 10.4688C9.48372 10.0312 9.23307 9.68945 8.88672 9.44336C8.54036 9.19727 8.09375 9.07422 7.54688 9.07422C7.03646 9.07422 6.61263 9.17904 6.27539 9.38867C5.94727 9.58919 5.70117 9.86719 5.53711 10.2227C5.38216 10.569 5.30469 10.9609 5.30469 11.3984C5.30469 11.7266 5.38216 12.0228 5.53711 12.2871C5.70117 12.5423 5.92448 12.7747 6.20703 12.9844C6.48958 13.1849 6.82227 13.3809 7.20508 13.5723C7.59701 13.7637 8.02539 13.9505 8.49023 14.1328C9.39258 14.4883 10.1901 14.8802 10.8828 15.3086C11.5755 15.7279 12.1543 16.2018 12.6191 16.7305C13.084 17.25 13.4349 17.8379 13.6719 18.4941C13.9089 19.1504 14.0273 19.8978 14.0273 20.7363C14.0273 21.5658 13.8815 22.3223 13.5898 23.0059C13.3073 23.6803 12.8926 24.2637 12.3457 24.7559C11.7988 25.2389 11.138 25.6126 10.3633 25.877C9.59766 26.1413 8.74089 26.2734 7.79297 26.2734C6.8724 26.2734 6.00195 26.1458 5.18164 25.8906C4.36133 25.6263 3.63672 25.2298 3.00781 24.7012C2.38802 24.1634 1.90039 23.4844 1.54492 22.6641C1.18945 21.8346 1.01172 20.8548 1.01172 19.7246H5.01758C5.01758 20.3262 5.07682 20.8411 5.19531 21.2695C5.3138 21.6888 5.49609 22.026 5.74219 22.2812C5.98828 22.5273 6.28906 22.7142 6.64453 22.8418C7.00911 22.9603 7.42383 23.0195 7.88867 23.0195C8.41732 23.0195 8.83659 22.9193 9.14648 22.7188C9.46549 22.5182 9.69336 22.2493 9.83008 21.9121C9.9668 21.5749 10.0352 21.1921 10.0352 20.7637ZM20.8086 5L17.1719 26H15.6543L19.3047 5H20.8086ZM27.3164 11.1934L20.5488 18.0977L17.4727 21.0234L17.5957 19.2051L19.9609 16.6895L25.3203 11.1934H27.3164ZM23.4199 26L19.8105 18.2344L20.8223 16.8672L25.1016 26H23.4199ZM31.6777 11.207L29.1074 26H27.6035L30.1738 11.207H31.6777ZM30.6797 6.95508C30.707 6.61784 30.8118 6.36263 30.9941 6.18945C31.1855 6.00716 31.4316 5.875 31.7324 5.79297C32.0423 5.85677 32.2793 5.97982 32.4434 6.16211C32.6165 6.33529 32.6895 6.59505 32.6621 6.94141C32.6348 7.26953 32.5254 7.52018 32.334 7.69336C32.1517 7.86654 31.9102 7.98503 31.6094 8.04883C31.3086 7.99414 31.0716 7.88021 30.8984 7.70703C30.7344 7.53385 30.6615 7.2832 30.6797 6.95508ZM38.5 5L34.8496 26H33.3457L36.9961 5H38.5ZM44.2422 5L40.5918 26H39.0879L42.7383 5H44.2422Z" fill="white"/>
<path d="M54.0352 25.2637C54.0352 24.9082 54.0033 24.5846 53.9395 24.293C53.8757 24.0013 53.7389 23.7324 53.5293 23.4863C53.3288 23.2402 53.0326 22.9941 52.6406 22.748C52.2578 22.502 51.7565 22.2467 51.1367 21.9824C50.3984 21.6725 49.6829 21.3444 48.9902 20.998C48.2975 20.6426 47.6732 20.2324 47.1172 19.7676C46.5612 19.3027 46.1191 18.7559 45.791 18.127C45.472 17.4889 45.3125 16.7415 45.3125 15.8848C45.3125 15.0462 45.4629 14.2852 45.7637 13.6016C46.0736 12.918 46.5111 12.3346 47.0762 11.8516C47.6413 11.3594 48.3021 10.9811 49.0586 10.7168C49.8242 10.4525 50.6764 10.3203 51.6152 10.3203C52.8913 10.3203 53.9941 10.5846 54.9238 11.1133C55.8626 11.6419 56.5872 12.3665 57.0977 13.2871C57.6172 14.2077 57.877 15.265 57.877 16.459H53.8848C53.8848 15.8939 53.8027 15.3971 53.6387 14.9688C53.4837 14.5312 53.2331 14.1895 52.8867 13.9434C52.5404 13.6973 52.0938 13.5742 51.5469 13.5742C51.0365 13.5742 50.6126 13.679 50.2754 13.8887C49.9473 14.0892 49.7012 14.3672 49.5371 14.7227C49.3822 15.069 49.3047 15.4609 49.3047 15.8984C49.3047 16.2266 49.3822 16.5228 49.5371 16.7871C49.7012 17.0423 49.9245 17.2747 50.207 17.4844C50.4896 17.6849 50.8223 17.8809 51.2051 18.0723C51.597 18.2637 52.0254 18.4505 52.4902 18.6328C53.3926 18.9883 54.1901 19.3802 54.8828 19.8086C55.5755 20.2279 56.1543 20.7018 56.6191 21.2305C57.084 21.75 57.4349 22.3379 57.6719 22.9941C57.9089 23.6504 58.0273 24.3978 58.0273 25.2363C58.0273 26.0658 57.8815 26.8223 57.5898 27.5059C57.3073 28.1803 56.8926 28.7637 56.3457 29.2559C55.7988 29.7389 55.138 30.1126 54.3633 30.377C53.5977 30.6413 52.7409 30.7734 51.793 30.7734C50.8724 30.7734 50.002 30.6458 49.1816 30.3906C48.3613 30.1263 47.6367 29.7298 47.0078 29.2012C46.388 28.6634 45.9004 27.9844 45.5449 27.1641C45.1895 26.3346 45.0117 25.3548 45.0117 24.2246H49.0176C49.0176 24.8262 49.0768 25.3411 49.1953 25.7695C49.3138 26.1888 49.4961 26.526 49.7422 26.7812C49.9883 27.0273 50.2891 27.2142 50.6445 27.3418C51.0091 27.4603 51.4238 27.5195 51.8887 27.5195C52.4173 27.5195 52.8366 27.4193 53.1465 27.2188C53.4655 27.0182 53.6934 26.7493 53.8301 26.4121C53.9668 26.0749 54.0352 25.6921 54.0352 25.2637ZM63.5508 28.791L69.4434 15.6934H71.0977L63.0996 32.8789C62.9173 33.3073 62.7077 33.7357 62.4707 34.1641C62.2337 34.5924 61.9603 34.9844 61.6504 35.3398C61.3405 35.7044 60.9759 35.9915 60.5566 36.2012C60.1465 36.4199 59.6771 36.5247 59.1484 36.5156C58.957 36.5156 58.7656 36.4974 58.5742 36.4609C58.3737 36.4245 58.1777 36.3789 57.9863 36.3242L58.1504 34.916C58.2598 34.9434 58.3691 34.9661 58.4785 34.9844C58.5879 35.0117 58.7064 35.0299 58.834 35.0391C59.3809 35.0573 59.8503 34.9342 60.2422 34.6699C60.6341 34.4056 60.9622 34.0592 61.2266 33.6309C61.5 33.2116 61.737 32.7741 61.9375 32.3184L63.5508 28.791ZM62.4707 15.707L63.9883 28.4629L64.084 30.1582L62.9082 30.8281L60.8984 15.707H62.4707ZM74.5566 18.8516L72.5469 30.5H71.0293L73.5996 15.707H75.0488L74.5566 18.8516ZM73.6543 22.1875L73.1211 21.8457C73.2396 21.1257 73.4401 20.3874 73.7227 19.6309C74.0052 18.8743 74.3698 18.1725 74.8164 17.5254C75.2721 16.8783 75.8236 16.3633 76.4707 15.9805C77.127 15.5885 77.8835 15.4017 78.7402 15.4199C79.4876 15.4382 80.0846 15.6159 80.5312 15.9531C80.987 16.2904 81.3151 16.7279 81.5156 17.2656C81.7253 17.7943 81.8483 18.373 81.8848 19.002C81.9212 19.6309 81.903 20.2507 81.8301 20.8613L80.2305 30.5H78.7266L80.3398 20.8203C80.3945 20.2552 80.3991 19.6673 80.3535 19.0566C80.3079 18.446 80.1302 17.931 79.8203 17.5117C79.5195 17.0924 79 16.8691 78.2617 16.8418C77.5964 16.8327 76.9993 16.9967 76.4707 17.334C75.9512 17.6712 75.5 18.1178 75.1172 18.6738C74.7435 19.2207 74.4336 19.804 74.1875 20.4238C73.9505 21.0436 73.7728 21.6315 73.6543 22.1875ZM88.9121 29.3652C89.6595 29.3926 90.2839 29.2604 90.7852 28.9688C91.2956 28.668 91.7057 28.2533 92.0156 27.7246C92.3346 27.1868 92.5762 26.5853 92.7402 25.9199H94.1348C93.9798 26.8314 93.6699 27.6654 93.2051 28.4219C92.7402 29.1693 92.1387 29.7617 91.4004 30.1992C90.6621 30.6276 89.8053 30.8281 88.8301 30.8008C87.8548 30.7734 87.071 30.5592 86.4785 30.1582C85.8861 29.748 85.4395 29.2103 85.1387 28.5449C84.847 27.8796 84.6693 27.1504 84.6055 26.3574C84.5508 25.5553 84.569 24.7533 84.6602 23.9512L84.8789 22.2559C84.9974 21.3809 85.1979 20.5286 85.4805 19.6992C85.763 18.8698 86.1504 18.1315 86.6426 17.4844C87.1348 16.8281 87.7454 16.3132 88.4746 15.9395C89.2038 15.5566 90.0697 15.388 91.0723 15.4336C92.084 15.4609 92.8861 15.7253 93.4785 16.2266C94.0801 16.7188 94.4993 17.3659 94.7363 18.168C94.9824 18.9609 95.0781 19.8086 95.0234 20.7109L93.5742 20.6973C93.6198 20.0684 93.5742 19.4668 93.4375 18.8926C93.3008 18.3184 93.0365 17.8444 92.6445 17.4707C92.2617 17.0879 91.7057 16.8828 90.9766 16.8555C90.1927 16.819 89.5273 16.9557 88.9805 17.2656C88.4336 17.5664 87.9824 17.9857 87.627 18.5234C87.2806 19.0521 87.0072 19.6445 86.8066 20.3008C86.6061 20.9479 86.4648 21.5996 86.3828 22.2559L86.1641 23.9512C86.1003 24.5345 86.0684 25.1406 86.0684 25.7695C86.0775 26.3893 86.1595 26.9681 86.3145 27.5059C86.4785 28.0436 86.7656 28.4811 87.1758 28.8184C87.5951 29.1556 88.1738 29.3379 88.9121 29.3652Z" fill="white"/>
<path d="M65.3852 47.251H66.9036L66.1204 45.0446L65.3852 47.251ZM67.5988 49.2256L67.2552 48.2503H65.0336L64.7059 49.2256H63.5552L65.4491 43.8215H66.7677L68.6777 49.2256H67.5988Z" fill="#FBFBFB"/>
<path d="M73.2969 45.2529C73.7364 45.2529 74.096 45.3968 74.3597 45.6846C74.6235 45.9724 74.7593 46.3561 74.7593 46.8438V49.218H73.7604V46.9157C73.7604 46.6839 73.7044 46.5 73.5926 46.3721C73.4807 46.2442 73.3209 46.1803 73.1131 46.1803C72.8893 46.1803 72.7135 46.2522 72.5857 46.4041C72.4578 46.556 72.3939 46.7718 72.3939 47.0516V49.218H71.3949V46.9157C71.3949 46.6839 71.339 46.5 71.2271 46.3721C71.1152 46.2442 70.9554 46.1803 70.7476 46.1803C70.5239 46.1803 70.3481 46.2522 70.2202 46.4041C70.0923 46.556 70.0204 46.7718 70.0204 47.0516V49.218H69.0215V45.3648H70.0204V45.7726C70.2522 45.4288 70.6118 45.2529 71.0913 45.2529C71.5628 45.2529 71.9144 45.4368 72.1381 45.8125C72.4098 45.4368 72.7934 45.2529 73.2969 45.2529Z" fill="#FBFBFB"/>
<path d="M76.5807 48.0754C76.7805 48.2753 77.0363 48.3792 77.3479 48.3792C77.6596 48.3792 77.9153 48.2753 78.1151 48.0754C78.3149 47.8756 78.4188 47.6118 78.4188 47.292C78.4188 46.9722 78.3149 46.7084 78.1151 46.5086C77.9153 46.3087 77.6596 46.2048 77.3479 46.2048C77.0363 46.2048 76.7805 46.3087 76.5807 46.5086C76.381 46.7084 76.2771 46.9722 76.2771 47.292C76.2771 47.6118 76.381 47.8756 76.5807 48.0754ZM78.4188 45.3654H79.4177V49.2266H78.4188V48.7709C78.1231 49.1466 77.6995 49.3385 77.1641 49.3385C76.6527 49.3385 76.2051 49.1387 75.8375 48.7469C75.4699 48.3552 75.2861 47.8676 75.2861 47.3C75.2861 46.7324 75.4699 46.2448 75.8375 45.853C76.2051 45.4613 76.6447 45.2615 77.1641 45.2615C77.7075 45.2615 78.1231 45.4533 78.4188 45.8291V45.3654Z" fill="#FBFBFB"/>
<path d="M81.4005 48.2904H83.1106V49.2257H80.0659V48.5622L81.6962 46.2998H80.1458V45.3645H83.0307V46.02L81.4005 48.2904Z" fill="#FBFBFB"/>
<path d="M84.5807 48.0754C84.7805 48.2753 85.0363 48.3792 85.3479 48.3792C85.6596 48.3792 85.9153 48.2753 86.1151 48.0754C86.3149 47.8756 86.4188 47.6118 86.4188 47.292C86.4188 46.9722 86.3149 46.7084 86.1151 46.5086C85.9153 46.3087 85.6596 46.2048 85.3479 46.2048C85.0363 46.2048 84.7805 46.3087 84.5807 46.5086C84.381 46.7084 84.2771 46.9722 84.2771 47.292C84.2771 47.6118 84.381 47.8756 84.5807 48.0754ZM86.4188 45.3654H87.4177V49.2266H86.4188V48.7709C86.1231 49.1466 85.6995 49.3385 85.1641 49.3385C84.6527 49.3385 84.2051 49.1387 83.8375 48.7469C83.4699 48.3552 83.2861 47.8676 83.2861 47.3C83.2861 46.7324 83.4699 46.2448 83.8375 45.853C84.2051 45.4613 84.6447 45.2615 85.1641 45.2615C85.7075 45.2615 86.1231 45.4533 86.4188 45.8291V45.3654Z" fill="#FBFBFB"/>
<path d="M90.3985 46.3165H89.5274V47.9234C89.5274 48.0593 89.5594 48.1552 89.6313 48.2191C89.6953 48.2831 89.7992 48.3151 89.927 48.3231C90.0549 48.3311 90.2147 48.3311 90.4065 48.3231V49.2264C89.7192 49.3064 89.2398 49.2424 88.9601 49.0346C88.6804 48.8267 88.5365 48.459 88.5365 47.9314V46.3165H87.8652V45.3572H88.5365V44.5738L89.5354 44.27V45.3492H90.4065V46.3165H90.3985Z" fill="#FBFBFB"/>
<path d="M90.9739 49.2264V45.3652H91.9728V49.2264H90.9739ZM91.4693 44.9015C91.3015 44.9015 91.1657 44.8376 91.0378 44.7176C90.9179 44.5977 90.854 44.4538 90.854 44.286C90.854 44.1181 90.9179 43.9742 91.0378 43.8543C91.1577 43.7344 91.3015 43.6704 91.4693 43.6704C91.6372 43.6704 91.781 43.7344 91.9089 43.8543C92.0287 43.9742 92.0927 44.1181 92.0927 44.286C92.0927 44.4538 92.0287 44.5897 91.9089 44.7176C91.781 44.8376 91.6372 44.9015 91.4693 44.9015Z" fill="#FBFBFB"/>
<path d="M94.5944 49.33C94.0111 49.33 93.5316 49.1381 93.14 48.7464C92.7484 48.3547 92.5566 47.875 92.5566 47.2914C92.5566 46.7159 92.7484 46.2282 93.14 45.8365C93.5316 45.4448 94.0111 45.2529 94.5944 45.2529C94.97 45.2529 95.3137 45.3409 95.6174 45.5247C95.929 45.7086 96.1608 45.9484 96.3206 46.2522L95.4655 46.7558C95.3856 46.596 95.2737 46.468 95.1139 46.3801C94.9541 46.2842 94.7783 46.2442 94.5865 46.2442C94.2908 46.2442 94.043 46.3401 93.8433 46.54C93.6515 46.7398 93.5476 46.9877 93.5476 47.2994C93.5476 47.6032 93.6435 47.851 93.8433 48.0509C94.0351 48.2507 94.2828 48.3467 94.5865 48.3467C94.7862 48.3467 94.9621 48.2987 95.1219 48.2108C95.2817 48.1228 95.3936 47.9949 95.4735 47.8351L96.3366 48.3307C96.1688 48.6345 95.929 48.8743 95.6174 49.0582C95.3057 49.242 94.97 49.33 94.5944 49.33Z" fill="#FBFBFB"/>
<path d="M57.8657 52L63.0042 46.8677L62.269 46.1323L57.8657 50.5371L53.4704 46.1323L57.1385 42.4709L60.0633 45.3968L57.8657 47.5952L56.4113 46.1323L56.7709 45.7725L57.1385 45.4048L57.8657 44.6693L57.1385 43.9419L54.9408 46.1323L57.8657 49.0661L61.5338 45.3968L57.1385 41L52 46.1323L57.8657 52Z" fill="#38C776"/>
<path d="M0.792614 50V43.4545H3.00426C3.51776 43.4545 3.9375 43.5472 4.26349 43.7326C4.59162 43.9158 4.83452 44.1641 4.99219 44.4773C5.14986 44.7905 5.22869 45.1399 5.22869 45.5256C5.22869 45.9112 5.14986 46.2617 4.99219 46.5771C4.83665 46.8924 4.59588 47.1438 4.26989 47.3313C3.94389 47.5167 3.52628 47.6094 3.01705 47.6094H1.43182V46.9062H2.99148C3.34304 46.9062 3.62536 46.8455 3.83842 46.7241C4.05149 46.6026 4.20597 46.4386 4.30185 46.2319C4.39986 46.0231 4.44886 45.7876 4.44886 45.5256C4.44886 45.2635 4.39986 45.0291 4.30185 44.8224C4.20597 44.6158 4.05043 44.4538 3.83523 44.3366C3.62003 44.2173 3.33452 44.1577 2.97869 44.1577H1.58523V50H0.792614ZM8.34482 50.1023C7.90163 50.1023 7.51278 49.9968 7.17827 49.7859C6.84588 49.5749 6.58594 49.2798 6.39844 48.9006C6.21307 48.5213 6.12038 48.0781 6.12038 47.571C6.12038 47.0597 6.21307 46.6133 6.39844 46.2319C6.58594 45.8505 6.84588 45.5543 7.17827 45.3434C7.51278 45.1325 7.90163 45.027 8.34482 45.027C8.788 45.027 9.17578 45.1325 9.50817 45.3434C9.84268 45.5543 10.1026 45.8505 10.288 46.2319C10.4755 46.6133 10.5692 47.0597 10.5692 47.571C10.5692 48.0781 10.4755 48.5213 10.288 48.9006C10.1026 49.2798 9.84268 49.5749 9.50817 49.7859C9.17578 49.9968 8.788 50.1023 8.34482 50.1023ZM8.34482 49.4247C8.68146 49.4247 8.95845 49.3384 9.17578 49.1658C9.39311 48.9933 9.55398 48.7663 9.65838 48.4851C9.76278 48.2038 9.81499 47.8991 9.81499 47.571C9.81499 47.2429 9.76278 46.9371 9.65838 46.6538C9.55398 46.3704 9.39311 46.1413 9.17578 45.9666C8.95845 45.7919 8.68146 45.7045 8.34482 45.7045C8.00817 45.7045 7.73118 45.7919 7.51385 45.9666C7.29652 46.1413 7.13565 46.3704 7.03125 46.6538C6.92685 46.9371 6.87464 47.2429 6.87464 47.571C6.87464 47.8991 6.92685 48.2038 7.03125 48.4851C7.13565 48.7663 7.29652 48.9933 7.51385 49.1658C7.73118 49.3384 8.00817 49.4247 8.34482 49.4247ZM12.6658 50L11.1701 45.0909H11.9627L13.0238 48.8494H13.0749L14.1232 45.0909H14.9286L15.9641 48.8366H16.0153L17.0763 45.0909H17.869L16.3732 50H15.6317L14.5579 46.2287H14.4812L13.4073 50H12.6658ZM20.7574 50.1023C20.2844 50.1023 19.8763 49.9979 19.5333 49.7891C19.1924 49.5781 18.9292 49.2841 18.7439 48.907C18.5606 48.5277 18.469 48.0866 18.469 47.5838C18.469 47.081 18.5606 46.6378 18.7439 46.2543C18.9292 45.8686 19.1871 45.5682 19.5173 45.353C19.8497 45.1357 20.2375 45.027 20.6807 45.027C20.9363 45.027 21.1888 45.0696 21.4381 45.1548C21.6874 45.2401 21.9143 45.3786 22.1189 45.5703C22.3234 45.7599 22.4864 46.0114 22.6079 46.3246C22.7293 46.6378 22.79 47.0234 22.79 47.4815V47.8011H19.0059V47.1491H22.023C22.023 46.8722 21.9676 46.625 21.8568 46.4077C21.7481 46.1903 21.5926 46.0188 21.3902 45.8931C21.1899 45.7674 20.9534 45.7045 20.6807 45.7045C20.3802 45.7045 20.1203 45.7791 19.9008 45.9283C19.6835 46.0753 19.5162 46.267 19.3991 46.5036C19.2819 46.7401 19.2233 46.9936 19.2233 47.2642V47.6989C19.2233 48.0696 19.2872 48.3839 19.415 48.6417C19.545 48.8974 19.7251 49.0923 19.9552 49.2266C20.1853 49.3587 20.4527 49.4247 20.7574 49.4247C20.9555 49.4247 21.1345 49.397 21.2943 49.3416C21.4562 49.2841 21.5958 49.1989 21.713 49.0859C21.8302 48.9709 21.9207 48.8281 21.9846 48.6577L22.7133 48.8622C22.6366 49.1094 22.5077 49.3267 22.3266 49.5142C22.1455 49.6996 21.9218 49.8445 21.6555 49.9489C21.3891 50.0511 21.0898 50.1023 20.7574 50.1023ZM23.9374 50V45.0909H24.6661V45.8324H24.7172C24.8067 45.5895 24.9687 45.3924 25.203 45.2411C25.4374 45.0898 25.7016 45.0142 25.9957 45.0142C26.051 45.0142 26.1203 45.0153 26.2034 45.0174C26.2865 45.0195 26.3493 45.0227 26.392 45.027V45.794C26.3664 45.7876 26.3078 45.7781 26.2162 45.7653C26.1267 45.7504 26.0319 45.7429 25.9317 45.7429C25.6931 45.7429 25.48 45.793 25.2925 45.8931C25.1072 45.9911 24.9601 46.1275 24.8515 46.3022C24.7449 46.4748 24.6917 46.6719 24.6917 46.8935V50H23.9374ZM29.1949 50.1023C28.7219 50.1023 28.3138 49.9979 27.9708 49.7891C27.6299 49.5781 27.3667 49.2841 27.1814 48.907C26.9981 48.5277 26.9065 48.0866 26.9065 47.5838C26.9065 47.081 26.9981 46.6378 27.1814 46.2543C27.3667 45.8686 27.6246 45.5682 27.9548 45.353C28.2872 45.1357 28.675 45.027 29.1182 45.027C29.3738 45.027 29.6263 45.0696 29.8756 45.1548C30.1249 45.2401 30.3518 45.3786 30.5564 45.5703C30.7609 45.7599 30.9239 46.0114 31.0454 46.3246C31.1668 46.6378 31.2275 47.0234 31.2275 47.4815V47.8011H27.4434V47.1491H30.4605C30.4605 46.8722 30.4051 46.625 30.2943 46.4077C30.1856 46.1903 30.0301 46.0188 29.8277 45.8931C29.6274 45.7674 29.3909 45.7045 29.1182 45.7045C28.8177 45.7045 28.5578 45.7791 28.3383 45.9283C28.121 46.0753 27.9537 46.267 27.8366 46.5036C27.7194 46.7401 27.6608 46.9936 27.6608 47.2642V47.6989C27.6608 48.0696 27.7247 48.3839 27.8525 48.6417C27.9825 48.8974 28.1626 49.0923 28.3927 49.2266C28.6228 49.3587 28.8902 49.4247 29.1949 49.4247C29.393 49.4247 29.572 49.397 29.7318 49.3416C29.8937 49.2841 30.0333 49.1989 30.1505 49.0859C30.2677 48.9709 30.3582 48.8281 30.4221 48.6577L31.1508 48.8622C31.0741 49.1094 30.9452 49.3267 30.7641 49.5142C30.583 49.6996 30.3593 49.8445 30.093 49.9489C29.8266 50.0511 29.5273 50.1023 29.1949 50.1023ZM34.2286 50.1023C33.8195 50.1023 33.4584 49.9989 33.1452 49.7923C32.8319 49.5835 32.5869 49.2894 32.4101 48.9102C32.2332 48.5288 32.1448 48.0781 32.1448 47.5582C32.1448 47.0426 32.2332 46.5952 32.4101 46.2159C32.5869 45.8366 32.833 45.5437 33.1483 45.337C33.4637 45.1303 33.828 45.027 34.2414 45.027C34.561 45.027 34.8135 45.0803 34.9988 45.1868C35.1863 45.2912 35.3291 45.4105 35.4271 45.5447C35.5273 45.6768 35.605 45.7855 35.6604 45.8707H35.7243V43.4545H36.4786V50H35.7499V49.2457H35.6604C35.605 49.3352 35.5262 49.4482 35.4239 49.5845C35.3216 49.7187 35.1757 49.8391 34.9861 49.9457C34.7964 50.0501 34.5439 50.1023 34.2286 50.1023ZM34.3309 49.4247C34.6334 49.4247 34.8891 49.3459 35.0979 49.1882C35.3067 49.0284 35.4655 48.8079 35.5741 48.5266C35.6828 48.2433 35.7371 47.9162 35.7371 47.5455C35.7371 47.179 35.6839 46.8583 35.5773 46.5835C35.4708 46.3065 35.3131 46.0913 35.1043 45.9379C34.8955 45.7823 34.6377 45.7045 34.3309 45.7045C34.0113 45.7045 33.7449 45.7866 33.5319 45.9506C33.3209 46.1126 33.1622 46.3331 33.0557 46.6122C32.9513 46.8892 32.8991 47.2003 32.8991 47.5455C32.8991 47.8949 32.9523 48.2124 33.0589 48.4979C33.1675 48.7812 33.3273 49.0071 33.5383 49.1754C33.7513 49.3416 34.0155 49.4247 34.3309 49.4247ZM40.5983 50V43.4545H41.3525V45.8707H41.4165C41.4719 45.7855 41.5486 45.6768 41.6466 45.5447C41.7467 45.4105 41.8895 45.2912 42.0748 45.1868C42.2623 45.0803 42.5159 45.027 42.8355 45.027C43.2488 45.027 43.6132 45.1303 43.9285 45.337C44.2439 45.5437 44.49 45.8366 44.6668 46.2159C44.8437 46.5952 44.9321 47.0426 44.9321 47.5582C44.9321 48.0781 44.8437 48.5288 44.6668 48.9102C44.49 49.2894 44.2449 49.5835 43.9317 49.7923C43.6185 49.9989 43.2574 50.1023 42.8483 50.1023C42.5329 50.1023 42.2805 50.0501 42.0908 49.9457C41.9012 49.8391 41.7552 49.7187 41.653 49.5845C41.5507 49.4482 41.4719 49.3352 41.4165 49.2457H41.327V50H40.5983ZM41.3398 47.5455C41.3398 47.9162 41.3941 48.2433 41.5028 48.5266C41.6114 48.8079 41.7702 49.0284 41.979 49.1882C42.1878 49.3459 42.4434 49.4247 42.746 49.4247C43.0613 49.4247 43.3245 49.3416 43.5354 49.1754C43.7485 49.0071 43.9083 48.7812 44.0148 48.4979C44.1235 48.2124 44.1778 47.8949 44.1778 47.5455C44.1778 47.2003 44.1246 46.8892 44.018 46.6122C43.9136 46.3331 43.7549 46.1126 43.5418 45.9506C43.3309 45.7866 43.0656 45.7045 42.746 45.7045C42.4392 45.7045 42.1814 45.7823 41.9726 45.9379C41.7638 46.0913 41.6061 46.3065 41.4996 46.5835C41.393 46.8583 41.3398 47.179 41.3398 47.5455ZM46.3959 51.8409C46.268 51.8409 46.154 51.8303 46.0539 51.8089C45.9537 51.7898 45.8845 51.7706 45.8461 51.7514L46.0379 51.0866C46.2211 51.1335 46.3831 51.1506 46.5237 51.1378C46.6643 51.125 46.789 51.0621 46.8976 50.9492C47.0084 50.8384 47.1096 50.6584 47.2013 50.4091L47.3419 50.0256L45.5265 45.0909H46.3447L47.6998 49.0028H47.751L49.1061 45.0909H49.9243L47.8405 50.7159C47.7467 50.9695 47.6306 51.1793 47.4921 51.3455C47.3536 51.5138 47.1927 51.6385 47.0095 51.7195C46.8284 51.8004 46.6238 51.8409 46.3959 51.8409Z" fill="white"/>
</svg>
