<svg width="20" height="21" viewBox="0 0 20 21" fill="none" xmlns="http://www.w3.org/2000/svg">
<path d="M8.13399 4.8C8.13399 4.35817 7.77581 4 7.33398 4C6.89216 4 6.53398 4.35817 6.53398 4.8V5.25671C3.82014 5.64488 1.73396 7.97881 1.73396 10.8V14.8L1.15988 15.8046C0.702745 16.6046 1.28039 17.6 2.20177 17.6H4.2348C4.59003 18.9802 5.84291 20 7.33398 20C8.82506 20 10.0779 18.9802 10.4332 17.6H12.4661C13.3875 17.6 13.9652 16.6046 13.508 15.8046L12.934 14.8V10.8C12.934 7.97883 10.8478 5.64491 8.13399 5.25671V4.8Z" stroke="white" stroke-width="1.2" stroke-linecap="round"/>
<rect x="8.5" y="0.5" width="11" height="11" rx="5.5" fill="#38C776"/>
<rect x="8.5" y="0.5" width="11" height="11" rx="5.5" stroke="#101F31"/>
<path d="M13.9538 8.55966C13.647 8.55966 13.3743 8.5071 13.1357 8.40199C12.8984 8.29687 12.7109 8.15057 12.5732 7.96307C12.4354 7.77557 12.3622 7.55895 12.3537 7.31321H13.1548C13.1619 7.43111 13.201 7.53409 13.272 7.62216C13.343 7.70881 13.4375 7.77628 13.5554 7.82457C13.6733 7.87287 13.8054 7.89702 13.9517 7.89702C14.108 7.89702 14.2464 7.87003 14.3672 7.81605C14.4879 7.76065 14.5824 7.68395 14.6506 7.58594C14.7188 7.48793 14.7521 7.375 14.7507 7.24716C14.7521 7.11506 14.718 6.99858 14.6484 6.89773C14.5788 6.79687 14.478 6.71804 14.3459 6.66122C14.2152 6.6044 14.0575 6.57599 13.8729 6.57599H13.4872V5.96662H13.8729C14.0249 5.96662 14.1577 5.94034 14.2713 5.88778C14.3864 5.83523 14.4766 5.76136 14.5419 5.66619C14.6072 5.5696 14.6392 5.4581 14.6378 5.33168C14.6392 5.2081 14.6115 5.10085 14.5547 5.00994C14.4993 4.91761 14.4205 4.84588 14.3182 4.79474C14.2173 4.74361 14.0987 4.71804 13.9624 4.71804C13.8288 4.71804 13.7053 4.74219 13.5916 4.79048C13.478 4.83878 13.3864 4.90767 13.3168 4.99716C13.2472 5.08523 13.2102 5.19034 13.206 5.3125H12.4453C12.451 5.06818 12.5213 4.85369 12.6562 4.66903C12.7926 4.48295 12.9744 4.33807 13.2017 4.23438C13.429 4.12926 13.6839 4.0767 13.9666 4.0767C14.2578 4.0767 14.5107 4.13139 14.7251 4.24077C14.9411 4.34872 15.108 4.49432 15.2259 4.67756C15.3438 4.8608 15.4027 5.06321 15.4027 5.2848C15.4041 5.53054 15.3317 5.73651 15.1854 5.9027C15.0405 6.06889 14.8501 6.17756 14.6143 6.22869V6.26278C14.9212 6.3054 15.1563 6.41903 15.3196 6.60369C15.4844 6.78693 15.5661 7.01491 15.5646 7.28764C15.5646 7.53196 15.495 7.75071 15.3558 7.94389C15.218 8.13565 15.0277 8.28622 14.7848 8.3956C14.5433 8.50497 14.2663 8.55966 13.9538 8.55966Z" fill="white"/>
</svg>
