<svg width="7" height="11" viewBox="0 0 7 11" fill="none" xmlns="http://www.w3.org/2000/svg">
<path d="M6.68094 6.27903L1.5514 10.7667C0.947871 11.2963 3.44065e-07 10.8659 3.44065e-07 10.0621L3.44065e-07 1.0868C-0.000153886 0.906916 0.051546 0.7308 0.148909 0.579542C0.246272 0.428285 0.385171 0.308298 0.548972 0.233951C0.712774 0.159603 0.894534 0.134048 1.07249 0.160342C1.25044 0.186637 1.41704 0.263669 1.55234 0.382213L6.68001 4.86986C6.78051 4.95769 6.86106 5.066 6.91625 5.18752C6.97145 5.30905 7 5.44098 7 5.57445C7 5.70792 6.97145 5.83984 6.91625 5.96137C6.86106 6.0829 6.78145 6.19121 6.68094 6.27903Z" fill="#1A1A1A"/>
</svg>
