<svg width="16" height="16" viewBox="0 0 16 16" fill="none" xmlns="http://www.w3.org/2000/svg">
<path d="M14.8807 14.305L11.6997 11.124C12.676 10.0106 13.2147 8.60191 13.2147 7.10736C13.2147 5.47594 12.5793 3.94235 11.4258 2.78887C10.2724 1.63539 8.73877 1 7.10736 1C5.47594 1 3.94235 1.63539 2.78887 2.78887C1.63539 3.94235 1 5.47594 1 7.10736C1 8.73877 1.63539 10.2724 2.78887 11.4258C3.94235 12.5793 5.47594 13.2147 7.10736 13.2147C8.60191 13.2147 10.0106 12.676 11.124 11.6997L14.305 14.8807C14.3845 14.9602 14.4887 15 14.5928 15C14.697 15 14.8012 14.9602 14.8807 14.8807C15.0398 14.7217 15.0398 14.464 14.8807 14.305ZM3.36461 10.8501C2.36501 9.8503 1.81431 8.52107 1.81431 7.10736C1.81431 5.69364 2.36501 4.36441 3.36461 3.36461C4.36441 2.36501 5.69364 1.81431 7.10736 1.81431C8.52107 1.81431 9.8503 2.36501 10.8501 3.36461C11.8497 4.36441 12.4004 5.69364 12.4004 7.10736C12.4004 8.52107 11.8497 9.8503 10.8501 10.8501C9.8503 11.8497 8.52107 12.4004 7.10736 12.4004C5.69364 12.4004 4.36441 11.8497 3.36461 10.8501Z" fill="#7A7A7A" stroke="#7A7A7A" stroke-width="0.5"/>
</svg>
