<svg width="25" height="17" viewBox="0 0 25 17" fill="none" xmlns="http://www.w3.org/2000/svg">
<path d="M12.3765 12.3276C14.481 12.3276 16.187 10.6216 16.187 8.51709C16.187 6.41258 14.481 4.70654 12.3765 4.70654C10.272 4.70654 8.56592 6.41258 8.56592 8.51709C8.56592 10.6216 10.272 12.3276 12.3765 12.3276Z" fill="#88A5C8"/>
<path d="M24.3724 7.46152C21.4433 3.922 17.0095 0.514893 12.3763 0.514893C7.74221 0.514893 3.30735 3.92438 0.380233 7.46152C-0.126093 8.07311 -0.126093 8.96097 0.380233 9.57257C1.11615 10.4619 2.65894 12.1785 4.7195 13.6784C9.90894 17.4562 14.8323 17.4645 20.0331 13.6784C22.0937 12.1785 23.6365 10.4619 24.3724 9.57257C24.8772 8.96216 24.8799 8.07512 24.3724 7.46152ZM12.3763 3.18228C15.3181 3.18228 17.7111 5.5753 17.7111 8.51704C17.7111 11.4588 15.3181 13.8518 12.3763 13.8518C9.43457 13.8518 7.04155 11.4588 7.04155 8.51704C7.04155 5.5753 9.43457 3.18228 12.3763 3.18228Z" fill="#88A5C8"/>
</svg>
